<svg width="318" height="23" viewBox="0 0 318 23" fill="none" xmlns="http://www.w3.org/2000/svg">
<path d="M298.725 18.8307C298.18 18.9175 297.808 19.43 297.895 19.9754C297.981 20.5208 298.494 20.8926 299.039 20.8058L298.725 18.8307ZM1.12704 22.8955C37.354 18.2658 94.9226 12.5473 148.777 8.36233C202.664 4.17475 252.726 1.53157 274 3.02932L274.14 1.03426C252.688 -0.476054 202.464 2.18423 148.622 6.36834C94.7461 10.555 37.1429 16.2765 0.873506 20.9116L1.12704 22.8955ZM274 3.02932C286.568 3.91419 296.139 5.18237 302.981 6.64961C306.403 7.38339 309.122 8.16265 311.183 8.95959C313.264 9.76461 314.59 10.556 315.307 11.2696C315.658 11.619 315.824 11.9118 315.892 12.1383C315.954 12.3478 315.947 12.5487 315.858 12.7745C315.656 13.2883 315.003 13.9819 313.587 14.7539C310.804 16.2704 305.799 17.7048 298.725 18.8307L299.039 20.8058C306.159 19.6728 311.447 18.1978 314.544 16.51C316.067 15.6798 317.251 14.6975 317.72 13.5061C317.966 12.8793 318.003 12.2203 317.809 11.5681C317.62 10.933 317.23 10.3623 316.718 9.8521C315.707 8.84636 314.075 7.93368 311.904 7.09421C309.712 6.24667 306.884 5.44108 303.401 4.69407C296.432 3.19976 286.76 1.9227 274.14 1.03426L274 3.02932Z" fill="#E3000F"/>
</svg>
