<svg width="73" height="65" viewBox="0 0 73 65" fill="none" xmlns="http://www.w3.org/2000/svg">
<g clip-path="url(#clip0_510_1421)">
<path d="M66.4 13.8L67.9884 16.345L71.0507 14.4338L68.6115 11.7728L66.4 13.8ZM64.2 11.4L66.4115 9.37282L64.7199 7.52751L62.6016 8.8613L64.2 11.4ZM32.8 13.8L34.3965 16.3399L37.4427 14.4251L35.0115 11.7728L32.8 13.8ZM30.6 11.4L32.8115 9.37282L31.1199 7.52751L29.0016 8.8613L30.6 11.4ZM67 42.4C67 38.2402 64.6351 35.357 62.4586 33.3214C61.3814 32.314 60.1799 31.3631 59.2362 30.5823C58.2234 29.7443 57.4641 29.0689 56.927 28.4262C56.405 27.8017 56.2571 27.3979 56.2226 27.1351C56.1942 26.9182 56.1949 26.456 56.7063 25.5964C57.8511 23.6722 60.9596 20.7318 67.9884 16.345L64.8116 11.255C57.7404 15.6682 53.4989 19.2528 51.5499 22.5286C50.5144 24.269 50.0324 26.0756 50.2735 27.9149C50.5086 29.7083 51.3825 31.1483 52.323 32.2738C53.2484 33.381 54.3922 34.3619 55.4114 35.2052C56.4998 36.1056 57.4593 36.861 58.3602 37.7036C60.1399 39.368 61 40.7598 61 42.4H67ZM68.6115 11.7728L66.4115 9.37282L61.9885 13.4272L64.1885 15.8272L68.6115 11.7728ZM62.6016 8.8613C54.256 14.1159 47.6723 20.0446 43.1444 25.9495C38.6582 31.7999 36 37.8835 36 43.4H42C42 39.7165 43.8418 34.9001 47.9056 29.6005C51.9277 24.3553 57.944 18.8841 65.7984 13.9387L62.6016 8.8613ZM36 43.4C36 47.9973 37.9015 51.646 40.867 54.0901C43.7639 56.4777 47.5221 57.6 51.2 57.6V51.6C48.6779 51.6 46.3361 50.8223 44.683 49.4599C43.0985 48.154 42 46.2027 42 43.4H36ZM51.2 57.6C54.9898 57.6 58.9094 56.4204 61.9346 53.8679C65.0284 51.2575 67 47.3599 67 42.4H61C61 45.6401 59.7717 47.8425 58.0654 49.2821C56.2906 50.7796 53.8102 51.6 51.2 51.6V57.6ZM33.4 42.4C33.4 38.2495 31.0582 35.3684 28.8953 33.3295C27.8263 32.3218 26.6337 31.3703 25.6982 30.59C24.6938 29.7522 23.9418 29.0777 23.4101 28.4359C22.894 27.8131 22.7458 27.4082 22.7112 27.1407C22.6824 26.9173 22.6857 26.4504 23.1948 25.5895C24.3329 23.6649 27.4194 20.7255 34.3965 16.3399L31.2035 11.2601C24.1806 15.6745 19.9671 19.2601 18.0302 22.5355C17.0018 24.2746 16.5239 26.0764 16.7607 27.9093C16.9917 29.698 17.856 31.1369 18.7899 32.2641C19.7082 33.3723 20.8437 34.354 21.855 35.1975C22.9351 36.0985 23.8862 36.8532 24.7797 37.6955C26.5418 39.3566 27.4 40.7505 27.4 42.4H33.4ZM35.0115 11.7728L32.8115 9.37282L28.3885 13.4272L30.5885 15.8272L35.0115 11.7728ZM29.0016 8.8613C20.656 14.1159 14.0723 20.0446 9.54435 25.9495C5.05816 31.7999 2.4 37.8835 2.4 43.4H8.4C8.4 39.7165 10.2418 34.9001 14.3056 29.6005C18.3277 24.3553 24.344 18.8841 32.1984 13.9387L29.0016 8.8613ZM2.4 43.4C2.4 47.9973 4.3015 51.646 7.26699 54.0901C10.1639 56.4777 13.9221 57.6 17.6 57.6V51.6C15.0779 51.6 12.7361 50.8223 11.083 49.4599C9.49851 48.154 8.4 46.2027 8.4 43.4H2.4ZM17.6 57.6C21.3898 57.6 25.3094 56.4204 28.3346 53.8679C31.4284 51.2575 33.4 47.3599 33.4 42.4H27.4C27.4 45.6401 26.1716 47.8425 24.4654 49.2821C22.6906 50.7796 20.2102 51.6 17.6 51.6V57.6Z" fill="#E3000F"/>
</g>
<defs>
<clipPath id="clip0_510_1421">
<rect width="73" height="65" fill="white"/>
</clipPath>
</defs>
</svg>
