<svg width="1724" height="1524" viewBox="0 0 1724 1524" fill="none" xmlns="http://www.w3.org/2000/svg">
<g clip-path="url(#clip0_481_1152)">
<path d="M1042 84.2209C1269.2 -57.4816 1867 28.6301 2059 31.7931L1948 1450.07C1948 1450.07 1236 1519.66 794 1450.07C352 1380.49 -360 1450.07 -360 1450.07L-617 338.604C-505 256.367 -108.8 90.4953 80 120.86C316 158.816 758 261.349 1042 84.2209Z" fill="white"/>
<path d="M-264 118.273C-93.8257 46.2725 166.174 93.0007 268 179.001C378.034 271.933 522.903 294.273 749.077 264.273C975.251 234.273 1404 63.0006 1620 179.001C1712.88 228.883 1786.68 239.12 1846 223.112" stroke="#E3000F" stroke-opacity="0.2" stroke-width="2"/>
<path d="M-632 1475.02C-354 1553.02 -92 1563 32 1515C200.815 1449.65 494 1449.02 910 1475.02C1326 1501.02 1596 1217.02 1854 1419.02" stroke="#E3000F" stroke-opacity="0.2" stroke-width="2"/>
</g>
<defs>
<clipPath id="clip0_481_1152">
<rect width="1724" height="1524" fill="white"/>
</clipPath>
</defs>
</svg>
