<svg width="1724" height="1311" viewBox="0 0 1724 1311" fill="none" xmlns="http://www.w3.org/2000/svg">
<g clip-path="url(#clip0_481_1152)">
<path d="M1042 83.9996C1269.2 -39.8702 1867 35.4046 2059 38.1696L1948 1277.96C1948 1277.96 1236 1338.79 794 1277.96C352 1217.14 -360 1277.96 -360 1277.96L-617 306.37C-505 234.482 -108.8 89.4844 80 116.028C316 149.207 758 238.837 1042 83.9996Z" fill="white"/>
<path d="M-264 128.273C-93.8257 56.2725 166.174 103.001 268 189.001C378.034 281.933 522.903 304.273 749.077 274.273C975.251 244.273 1404 73.0006 1620 189.001C1712.88 238.883 1786.68 249.12 1846 233.112" stroke="#E3000F" stroke-opacity="0.2" stroke-width="2"/>
<path d="M-672 1219.02C-394 1297.02 -132 1307 -8 1259C160.815 1193.65 454 1193.02 870 1219.02C1286 1245.02 1556 961.015 1814 1163.02" stroke="#E3000F" stroke-opacity="0.2" stroke-width="2"/>
</g>
<defs>
<clipPath id="clip0_481_1152">
<rect width="1724" height="1311" fill="white"/>
</clipPath>
</defs>
</svg>
