<svg width="390" height="676" viewBox="0 0 390 676" fill="none" xmlns="http://www.w3.org/2000/svg">
<g clip-path="url(#clip0_494_797)">
<path d="M31 21.0944C-40.6129 -11.5383 -54.1307 -40.4384 -100.246 -42.839C-105.665 -43.1211 -110 -38.6282 -110 -33.2017V203.508C-110 204.075 -109.952 204.641 -109.856 205.201L-30.4267 667.693C-29.6025 672.492 -25.4407 676 -20.571 676H488.78C494.388 676 498.9 671.389 498.778 665.782L484.167 -5.62132C484.114 -8.02882 483.226 -10.3928 481.426 -11.9925C448.544 -41.2162 378.513 14.0468 255 57.4822C187.122 81.3528 133.4 67.7562 31 21.0944Z" fill="white"/>
</g>
<defs>
<clipPath id="clip0_494_797">
<rect width="390" height="676" fill="white"/>
</clipPath>
</defs>
</svg>
